<?xml version="1.0" encoding="UTF-8" standalone="no"?>
<!-- Created with Inkscape (http://www.inkscape.org/) -->

<svg
   xmlns:dc="http://purl.org/dc/elements/1.1/"
   xmlns:cc="http://creativecommons.org/ns#"
   xmlns:rdf="http://www.w3.org/1999/02/22-rdf-syntax-ns#"
   xmlns:svg="http://www.w3.org/2000/svg"
   xmlns="http://www.w3.org/2000/svg"
   xmlns:xlink="http://www.w3.org/1999/xlink"
   xmlns:sodipodi="http://sodipodi.sourceforge.net/DTD/sodipodi-0.dtd"
   xmlns:inkscape="http://www.inkscape.org/namespaces/inkscape"
   width="15mm"
   height="14.500368mm"
   viewBox="0 0 15 14.500368"
   version="1.1"
   id="svg8"
   inkscape:version="0.92.5 (2060ec1f9f, 2020-04-08)"
   sodipodi:docname="rec.svg">
  <defs
     id="defs2">
    <linearGradient
       id="linearGradient4576"
       inkscape:collect="always">
      <stop
         id="stop4572"
         offset="0"
         style="stop-color:#eb3b00;stop-opacity:1" />
      <stop
         id="stop4574"
         offset="1"
         style="stop-color:#2a0000;stop-opacity:1" />
    </linearGradient>
    <linearGradient
       inkscape:collect="always"
       id="linearGradient4527">
      <stop
         style="stop-color:#003f08;stop-opacity:1"
         offset="0"
         id="stop4523" />
      <stop
         style="stop-color:#00d308;stop-opacity:1"
         offset="1"
         id="stop4525" />
    </linearGradient>
    <linearGradient
       inkscape:collect="always"
       xlink:href="#linearGradient4527"
       id="linearGradient4529"
       x1="6.0319963"
       y1="-282.16211"
       x2="5.9841747"
       y2="-295.76746"
       gradientUnits="userSpaceOnUse"
       gradientTransform="matrix(3.7795276,0,0,-3.7795276,0,-1065.8268)" />
    <radialGradient
       inkscape:collect="always"
       xlink:href="#linearGradient4576"
       id="radialGradient4570"
       cx="23.860275"
       cy="25.74213"
       fx="23.860275"
       fy="25.74213"
       r="24.567383"
       gradientTransform="matrix(0.73232272,0.47893361,-0.23972618,0.27533594,-4.0182274,270.18971)"
       gradientUnits="userSpaceOnUse" />
  </defs>
  <sodipodi:namedview
     id="base"
     pagecolor="#ffffff"
     bordercolor="#666666"
     borderopacity="1.0"
     inkscape:pageopacity="0.0"
     inkscape:pageshadow="2"
     inkscape:zoom="8.0000001"
     inkscape:cx="23.026121"
     inkscape:cy="21.612271"
     inkscape:document-units="mm"
     inkscape:current-layer="layer1"
     showgrid="false"
     inkscape:window-width="1848"
     inkscape:window-height="1053"
     inkscape:window-x="72"
     inkscape:window-y="27"
     inkscape:window-maximized="1" />
  <metadata
     id="metadata5">
    <rdf:RDF>
      <cc:Work
         rdf:about="">
        <dc:format>image/svg+xml</dc:format>
        <dc:type
           rdf:resource="http://purl.org/dc/dcmitype/StillImage" />
        <dc:title></dc:title>
      </cc:Work>
    </rdf:RDF>
  </metadata>
  <g
     inkscape:label="Livello 1"
     inkscape:groupmode="layer"
     id="layer1"
     transform="translate(0,-282)">
    <path
       style="opacity:1;fill:url(#radialGradient4570);fill-opacity:1;stroke:none;stroke-width:4.04529572;stroke-miterlimit:4;stroke-dasharray:none;stroke-opacity:1"
       d="M 0,282 V 295.00024 295 c 0,0 3.3706734,1.51762 7.4997017,1.50022 C 11.62907,296.48272 14.999723,295 14.999723,295 H 15 v -13 z"
       id="rect3713"
       inkscape:connector-curvature="0"
       sodipodi:nodetypes="cccccccc" />
    <g
       id="g852"
       transform="translate(0.28398283,0.82656069)">
      <ellipse
         ry="1.041942"
         rx="1.0419419"
         cy="287.16864"
         cx="7.2160172"
         id="path834"
         style="opacity:1;fill:#1e1e1e;fill-opacity:1;stroke:#1e1e1e;stroke-width:0.41611612;stroke-linecap:round;stroke-linejoin:round;stroke-miterlimit:4;stroke-dasharray:none;stroke-opacity:1;paint-order:normal" />
      <g
         transform="matrix(0.22288634,0,0,0.22288634,4.274673,226.16568)"
         id="text838"
         style="font-style:normal;font-weight:normal;font-size:10.58333302px;line-height:1.25;font-family:sans-serif;letter-spacing:0px;word-spacing:0px;fill:#1e1e1e;fill-opacity:1;stroke:none;stroke-width:0.26458332"
         aria-label="REC">
        <path
           inkscape:connector-curvature="0"
           id="path840"
           style="fill:#1e1e1e;fill-opacity:1;stroke-width:0.26458332"
           d="m 6.9463459,286.7976 q 0.3358968,0.11369 0.651123,0.48576 0.3203939,0.37207 0.6407878,1.02319 l 1.0593668,2.1084 H 8.176245 L 7.1892251,288.43574 Q 6.8068195,287.66059 6.4450845,287.40738 6.0885172,287.15416 5.4684,287.15416 H 4.3315185 v 3.26079 H 3.2876546 v -7.71529 h 2.3564452 q 1.3229167,0 1.9740397,0.55293 0.651123,0.55294 0.651123,1.66915 0,0.72864 -0.3410644,1.20923 -0.3358968,0.48059 -0.9818522,0.66663 z m -2.6148274,-3.24011 v 2.73885 h 1.3125813 q 0.7544759,0 1.1368815,-0.34624 0.3875733,-0.3514 0.3875733,-1.02836 0,-0.67696 -0.3875733,-1.01802 -0.3824056,-0.34623 -1.1368815,-0.34623 z" />
        <path
           inkscape:connector-curvature="0"
           id="path842"
           style="fill:#1e1e1e;fill-opacity:1;stroke-width:0.26458332"
           d="m 10.641211,282.69966 h 4.878255 v 0.8785 h -3.834391 v 2.28409 h 3.674194 v 0.8785 h -3.674194 v 2.7957 h 3.927408 v 0.8785 h -4.971272 z" />
        <path
           inkscape:connector-curvature="0"
           id="path844"
           style="fill:#1e1e1e;fill-opacity:1;stroke-width:0.26458332"
           d="m 23.105566,283.29394 v 1.1007 q -0.5271,-0.49092 -1.126546,-0.7338 -0.594279,-0.24288 -1.266073,-0.24288 -1.322916,0 -2.025716,0.81132 -0.702799,0.80615 -0.702799,2.33577 0,1.52446 0.702799,2.33578 0.7028,0.80615 2.025716,0.80615 0.671794,0 1.266073,-0.24288 0.599446,-0.24288 1.126546,-0.7338 v 1.09037 q -0.54777,0.37207 -1.16272,0.5581 -0.609782,0.18604 -1.291911,0.18604 -1.751831,0 -2.759521,-1.0697 -1.00769,-1.07487 -1.00769,-2.93006 0,-1.86035 1.00769,-2.93005 1.00769,-1.07487 2.759521,-1.07487 0.692465,0 1.302246,0.18604 0.61495,0.18086 1.152385,0.54777 z" />
      </g>
    </g>
  </g>
</svg>
